<svg width="113" height="43" viewBox="0 0 113 43" fill="none" xmlns="http://www.w3.org/2000/svg">
<path fill-rule="evenodd" clip-rule="evenodd" d="M20 0C18.275 0 15.3925 0.6625 12.68 1.4C9.90501 2.15 7.10751 3.0375 5.46251 3.575C4.77474 3.80213 4.16499 4.21866 3.70331 4.77675C3.24162 5.33484 2.94673 6.01185 2.85251 6.73C1.36251 17.9225 4.82001 26.2175 9.01501 31.705C10.794 34.0524 12.9151 36.1196 15.3075 37.8375C16.2725 38.52 17.1675 39.0425 17.9275 39.4C18.6275 39.73 19.38 40 20 40C20.62 40 21.37 39.73 22.0725 39.4C22.9887 38.9547 23.8652 38.4319 24.6925 37.8375C27.085 36.1196 29.2061 34.0525 30.985 31.705C35.18 26.2175 38.6375 17.9225 37.1475 6.73C37.0535 6.0115 36.7587 5.3341 36.297 4.77558C35.8353 4.21706 35.2255 3.80007 34.5375 3.5725C32.1495 2.78953 29.743 2.06432 27.32 1.3975C24.6075 0.665 21.725 0 20 0ZM20 12.5C20.8856 12.4987 21.7431 12.8108 22.4206 13.3812C23.0981 13.9515 23.5519 14.7432 23.7016 15.616C23.8513 16.4889 23.6873 17.3866 23.2386 18.1501C22.7899 18.9136 22.0854 19.4936 21.25 19.7875L22.2125 24.7625C22.2475 24.9434 22.2421 25.1299 22.1966 25.3085C22.1511 25.4871 22.0667 25.6534 21.9494 25.7956C21.8321 25.9378 21.6848 26.0522 21.5181 26.1308C21.3514 26.2093 21.1693 26.25 20.985 26.25H19.015C18.8309 26.2497 18.6492 26.2087 18.4828 26.13C18.3163 26.0512 18.1694 25.9367 18.0523 25.7946C17.9353 25.6525 17.8511 25.4863 17.8058 25.3079C17.7604 25.1295 17.755 24.9432 17.79 24.7625L18.75 19.7875C17.9146 19.4936 17.2101 18.9136 16.7614 18.1501C16.3127 17.3866 16.1487 16.4889 16.2984 15.616C16.4481 14.7432 16.9019 13.9515 17.5794 13.3812C18.2569 12.8108 19.1144 12.4987 20 12.5V12.5Z" fill="black"/>
<path d="M51.7414 15.098C50.5934 15.098 49.6507 14.8273 48.9134 14.286C48.1761 13.7353 47.7794 12.9513 47.7234 11.934H50.6494C50.6774 12.2793 50.7801 12.5313 50.9574 12.69C51.1347 12.8487 51.3634 12.928 51.6434 12.928C51.8954 12.928 52.1007 12.8673 52.2594 12.746C52.4274 12.6153 52.5114 12.438 52.5114 12.214C52.5114 11.9247 52.3761 11.7007 52.1054 11.542C51.8347 11.3833 51.3961 11.206 50.7894 11.01C50.1454 10.7953 49.6227 10.59 49.2214 10.394C48.8294 10.1887 48.4841 9.89467 48.1854 9.512C47.8961 9.12 47.7514 8.61133 47.7514 7.986C47.7514 7.35133 47.9101 6.81 48.2274 6.362C48.5447 5.90467 48.9834 5.55933 49.5434 5.326C50.1034 5.09267 50.7381 4.976 51.4474 4.976C52.5954 4.976 53.5101 5.24667 54.1914 5.788C54.8821 6.32 55.2507 7.07133 55.2974 8.042H52.3154C52.3061 7.74333 52.2127 7.51933 52.0354 7.37C51.8674 7.22067 51.6481 7.146 51.3774 7.146C51.1721 7.146 51.0041 7.20667 50.8734 7.328C50.7427 7.44933 50.6774 7.622 50.6774 7.846C50.6774 8.03267 50.7474 8.196 50.8874 8.336C51.0367 8.46667 51.2187 8.58333 51.4334 8.686C51.6481 8.77933 51.9654 8.90067 52.3854 9.05C53.0107 9.26467 53.5241 9.47933 53.9254 9.694C54.3361 9.89933 54.6861 10.1933 54.9754 10.576C55.2741 10.9493 55.4234 11.4253 55.4234 12.004C55.4234 12.592 55.2741 13.1193 54.9754 13.586C54.6861 14.0527 54.2614 14.4213 53.7014 14.692C53.1507 14.9627 52.4974 15.098 51.7414 15.098ZM59.443 7.328V8.938H62.593V11.024H59.443V12.802H63.013V15H56.699V5.13H63.013V7.328H59.443ZM64.033 10.044C64.033 9.07333 64.2336 8.21 64.635 7.454C65.0456 6.68867 65.6243 6.096 66.371 5.676C67.1176 5.24667 67.9763 5.032 68.947 5.032C70.179 5.032 71.215 5.36333 72.055 6.026C72.895 6.67933 73.4363 7.57067 73.679 8.7H70.725C70.5476 8.32667 70.3003 8.042 69.983 7.846C69.675 7.65 69.3156 7.552 68.905 7.552C68.2703 7.552 67.7616 7.78067 67.379 8.238C67.0056 8.686 66.819 9.288 66.819 10.044C66.819 10.8093 67.0056 11.4207 67.379 11.878C67.7616 12.326 68.2703 12.55 68.905 12.55C69.3156 12.55 69.675 12.452 69.983 12.256C70.3003 12.06 70.5476 11.7753 70.725 11.402H73.679C73.4363 12.5313 72.895 13.4273 72.055 14.09C71.215 14.7433 70.179 15.07 68.947 15.07C67.9763 15.07 67.1176 14.86 66.371 14.44C65.6243 14.0107 65.0456 13.418 64.635 12.662C64.2336 11.8967 64.033 11.024 64.033 10.044ZM77.6663 5.13V10.856C77.6663 11.388 77.7877 11.7987 78.0303 12.088C78.2823 12.3773 78.6603 12.522 79.1643 12.522C79.6683 12.522 80.0463 12.3773 80.2983 12.088C80.5597 11.7893 80.6903 11.3787 80.6903 10.856V5.13H83.4343V10.856C83.4343 11.7613 83.243 12.536 82.8603 13.18C82.4777 13.8147 81.955 14.2953 81.2923 14.622C80.639 14.9393 79.911 15.098 79.1083 15.098C78.3057 15.098 77.587 14.9393 76.9523 14.622C76.327 14.2953 75.8323 13.8147 75.4683 13.18C75.1137 12.5453 74.9363 11.7707 74.9363 10.856V5.13H77.6663ZM89.9431 15L87.9831 11.36H87.6891V15H84.9451V5.13H89.2711C90.0645 5.13 90.7365 5.27 91.2871 5.55C91.8378 5.82067 92.2531 6.19867 92.5331 6.684C92.8131 7.16 92.9531 7.69667 92.9531 8.294C92.9531 8.966 92.7665 9.55867 92.3931 10.072C92.0291 10.576 91.4925 10.9353 90.7831 11.15L93.0091 15H89.9431ZM87.6891 9.484H89.0471C89.4205 9.484 89.7005 9.39533 89.8871 9.218C90.0738 9.04067 90.1671 8.784 90.1671 8.448C90.1671 8.13067 90.0691 7.88333 89.8731 7.706C89.6865 7.51933 89.4111 7.426 89.0471 7.426H87.6891V9.484ZM96.945 7.328V8.938H100.095V11.024H96.945V12.802H100.515V15H94.201V5.13H100.515V7.328H96.945ZM55.1164 26.13V28.314H52.4844V36H49.7404V28.314H47.1364V26.13H55.1164ZM58.8197 26.13V31.856C58.8197 32.388 58.941 32.7987 59.1837 33.088C59.4357 33.3773 59.8137 33.522 60.3177 33.522C60.8217 33.522 61.1997 33.3773 61.4517 33.088C61.713 32.7893 61.8437 32.3787 61.8437 31.856V26.13H64.5877V31.856C64.5877 32.7613 64.3963 33.536 64.0137 34.18C63.631 34.8147 63.1083 35.2953 62.4457 35.622C61.7923 35.9393 61.0643 36.098 60.2617 36.098C59.459 36.098 58.7403 35.9393 58.1057 35.622C57.4803 35.2953 56.9857 34.8147 56.6217 34.18C56.267 33.5453 56.0897 32.7707 56.0897 31.856V26.13H58.8197ZM68.8425 26.13V36H66.0985V26.13H68.8425ZM77.8391 26.13V28.314H75.2071V36H72.4631V28.314H69.8591V26.13H77.8391ZM81.5983 26.13V36H78.8543V26.13H81.5983ZM87.893 36.098C86.969 36.098 86.1196 35.8833 85.345 35.454C84.5703 35.0153 83.9543 34.4133 83.497 33.648C83.049 32.8733 82.825 32.0007 82.825 31.03C82.825 30.0593 83.049 29.1913 83.497 28.426C83.9543 27.6513 84.5703 27.0493 85.345 26.62C86.1196 26.1907 86.969 25.976 87.893 25.976C88.8263 25.976 89.6756 26.1907 90.441 26.62C91.2156 27.0493 91.827 27.6513 92.275 28.426C92.723 29.1913 92.947 30.0593 92.947 31.03C92.947 32.0007 92.723 32.8733 92.275 33.648C91.827 34.4133 91.2156 35.0153 90.441 35.454C89.6663 35.8833 88.817 36.098 87.893 36.098ZM87.893 33.55C88.593 33.55 89.1436 33.3213 89.545 32.864C89.9556 32.4067 90.161 31.7953 90.161 31.03C90.161 30.246 89.9556 29.63 89.545 29.182C89.1436 28.7247 88.593 28.496 87.893 28.496C87.1836 28.496 86.6283 28.7247 86.227 29.182C85.8256 29.63 85.625 30.246 85.625 31.03C85.625 31.8047 85.8256 32.4207 86.227 32.878C86.6283 33.326 87.1836 33.55 87.893 33.55ZM103.322 36H100.578L96.9245 30.484V36H94.1805V26.13H96.9245L100.578 31.716V26.13H103.322V36Z" fill="black"/>
</svg>
